<?xml version="1.0" encoding="UTF-8" standalone="no"?><svg xmlns="http://www.w3.org/2000/svg" xmlns:xlink="http://www.w3.org/1999/xlink" contentScriptType="application/ecmascript" contentStyleType="text/css" height="1430px" preserveAspectRatio="none" style="width:870px;height:1430px;" version="1.1" viewBox="0 0 870 1430" width="870px" zoomAndPan="magnify"><defs><filter height="300%" id="f1r6bmdjqr0xrl" width="300%" x="-1" y="-1"><feGaussianBlur result="blurOut" stdDeviation="2.0"/><feColorMatrix in="blurOut" result="blurOut2" type="matrix" values="0 0 0 0 0 0 0 0 0 0 0 0 0 0 0 0 0 0 .4 0"/><feOffset dx="4.0" dy="4.0" in="blurOut2" result="blurOut3"/><feBlend in="SourceGraphic" in2="blurOut3" mode="normal"/></filter></defs><g><text fill="#000000" font-family="sans-serif" font-size="18" lengthAdjust="spacingAndGlyphs" textLength="165" x="336" y="16.708">PS60's model UML</text><!--MD5=[ad11257a85e036b3d6a52d8983a39f6a]
cluster it.polimi.ingsw.ps60.serverSide.model--><polygon fill="#FFFFFF" filter="url(#f1r6bmdjqr0xrl)" points="388,176.9531,701,176.9531,708,199.25,745,199.25,745,1418.9531,388,1418.9531,388,176.9531" style="stroke: #000000; stroke-width: 1.5;"/><line style="stroke: #000000; stroke-width: 1.5;" x1="388" x2="708" y1="199.25" y2="199.25"/><text fill="#000000" font-family="sans-serif" font-size="14" font-weight="bold" lengthAdjust="spacingAndGlyphs" textLength="307" x="392" y="191.9482">it.polimi.ingsw.ps60.serverSide.model</text><!--MD5=[0d852700fdad35b7061d461d6907a324]
cluster java.io--><polygon fill="#FFFFFF" filter="url(#f1r6bmdjqr0xrl)" points="641,44.9531,699,44.9531,706,67.25,773,67.25,773,143.9531,641,143.9531,641,44.9531" style="stroke: #000000; stroke-width: 1.5;"/><line style="stroke: #000000; stroke-width: 1.5;" x1="641" x2="706" y1="67.25" y2="67.25"/><text fill="#000000" font-family="sans-serif" font-size="14" font-weight="bold" lengthAdjust="spacingAndGlyphs" textLength="52" x="645" y="59.9482">java.io</text><!--MD5=[a39be1bdbca880151af97ff85cdf2859]
cluster it.polimi.ingsw.ps60.serverSide.server--><polygon fill="#FFFFFF" filter="url(#f1r6bmdjqr0xrl)" points="40,983.9531,354,983.9531,361,1006.25,364,1006.25,364,1082.9531,40,1082.9531,40,983.9531" style="stroke: #000000; stroke-width: 1.5;"/><line style="stroke: #000000; stroke-width: 1.5;" x1="40" x2="361" y1="1006.25" y2="1006.25"/><text fill="#000000" font-family="sans-serif" font-size="14" font-weight="bold" lengthAdjust="spacingAndGlyphs" textLength="308" x="44" y="998.9482">it.polimi.ingsw.ps60.serverSide.server</text><!--MD5=[9c2f9496c264981aca8953df0d2eb612]
class it.polimi.ingsw.ps60.serverSide.model.Board--><rect fill="#FEFECE" filter="url(#f1r6bmdjqr0xrl)" height="304.0938" id="it.polimi.ingsw.ps60.serverSide.model.Board" style="stroke: #A80036; stroke-width: 1.5;" width="277" x="404.5" y="211.9531"/><ellipse cx="521.25" cy="227.9531" fill="#ADD1B2" rx="11" ry="11" style="stroke: #A80036; stroke-width: 1.0;"/><path d="M523.7188,233.8281 Q523.1406,234.1406 522.5,234.2969 Q521.8594,234.4531 521.1563,234.4531 Q518.6563,234.4531 517.3281,232.7813 Q516.0156,231.1094 516.0156,227.9531 Q516.0156,224.7969 517.3281,223.125 Q518.6563,221.4531 521.1563,221.4531 Q521.8594,221.4531 522.5,221.6094 Q523.1563,221.7656 523.7188,222.0781 L523.7188,224.875 Q523.0938,224.3125 522.5,224.0469 Q521.9063,223.7656 521.2813,223.7656 Q519.9375,223.7656 519.25,224.8281 Q518.5625,225.8906 518.5625,227.9531 Q518.5625,230.0313 519.25,231.0938 Q519.9375,232.1406 521.2813,232.1406 Q521.9063,232.1406 522.5,231.875 Q523.0938,231.6094 523.7188,231.0313 L523.7188,233.8281 Z "/><text fill="#000000" font-family="sans-serif" font-size="12" lengthAdjust="spacingAndGlyphs" textLength="35" x="541.75" y="232.1074">Board</text><line style="stroke: #A80036; stroke-width: 1.5;" x1="405.5" x2="680.5" y1="243.9531" y2="243.9531"/><rect fill="none" height="6" style="stroke: #C82930; stroke-width: 1.0;" width="6" x="412.5" y="251.9531"/><text fill="#000000" font-family="sans-serif" font-size="11" lengthAdjust="spacingAndGlyphs" textLength="103" x="424.5" y="258.1636">cellMatrix : Cell[][]</text><rect fill="none" height="6" style="stroke: #C82930; stroke-width: 1.0;" width="6" x="412.5" y="264.7578"/><text fill="#000000" font-family="sans-serif" font-size="11" lengthAdjust="spacingAndGlyphs" textLength="106" x="424.5" y="270.9683">cellToSend : char[]</text><rect fill="none" height="6" style="stroke: #C82930; stroke-width: 1.0;" width="6" x="412.5" y="277.5625"/><text fill="#000000" font-family="sans-serif" font-size="11" lengthAdjust="spacingAndGlyphs" textLength="113" x="424.5" y="283.7729">completeTower : int</text><rect fill="none" height="6" style="stroke: #C82930; stroke-width: 1.0;" width="6" x="412.5" y="290.3672"/><text fill="#000000" font-family="sans-serif" font-size="11" lengthAdjust="spacingAndGlyphs" textLength="251" x="424.5" y="296.5776">playerInGame : CircularListIterator&lt;Player&gt;</text><rect fill="none" height="6" style="stroke: #C82930; stroke-width: 1.0;" width="6" x="412.5" y="303.1719"/><text fill="#000000" font-family="sans-serif" font-size="11" lengthAdjust="spacingAndGlyphs" textLength="220" x="424.5" y="309.3823">playerList : CircularLinkedList&lt;Player&gt;</text><rect fill="none" height="6" style="stroke: #C82930; stroke-width: 1.0;" width="6" x="412.5" y="315.9766"/><text fill="#000000" font-family="sans-serif" font-size="11" lengthAdjust="spacingAndGlyphs" textLength="127" x="424.5" y="322.187">playerMatrix : Player[]</text><rect fill="none" height="6" style="stroke: #C82930; stroke-width: 1.0;" width="6" x="412.5" y="328.7813"/><text fill="#000000" font-family="sans-serif" font-size="11" lengthAdjust="spacingAndGlyphs" textLength="113" x="424.5" y="334.9917">playersNumber : int</text><line style="stroke: #A80036; stroke-width: 1.5;" x1="405.5" x2="680.5" y1="341.5859" y2="341.5859"/><ellipse cx="415.5" cy="352.5859" fill="#84BE84" rx="3" ry="3" style="stroke: #038048; stroke-width: 1.0;"/><text fill="#000000" font-family="sans-serif" font-size="11" lengthAdjust="spacingAndGlyphs" textLength="42" x="424.5" y="355.7964">Board()</text><ellipse cx="415.5" cy="365.3906" fill="#84BE84" rx="3" ry="3" style="stroke: #038048; stroke-width: 1.0;"/><text fill="#000000" font-family="sans-serif" font-size="11" lengthAdjust="spacingAndGlyphs" textLength="75" x="424.5" y="368.6011">changeTurn()</text><ellipse cx="415.5" cy="378.1953" fill="#84BE84" rx="3" ry="3" style="stroke: #038048; stroke-width: 1.0;"/><text fill="#000000" font-family="sans-serif" font-size="11" lengthAdjust="spacingAndGlyphs" textLength="106" x="424.5" y="381.4058">getCellByPosition()</text><ellipse cx="415.5" cy="391" fill="#84BE84" rx="3" ry="3" style="stroke: #038048; stroke-width: 1.0;"/><text fill="#000000" font-family="sans-serif" font-size="11" lengthAdjust="spacingAndGlyphs" textLength="89" x="424.5" y="394.2104">getCellToSend()</text><ellipse cx="415.5" cy="403.8047" fill="#84BE84" rx="3" ry="3" style="stroke: #038048; stroke-width: 1.0;"/><text fill="#000000" font-family="sans-serif" font-size="11" lengthAdjust="spacingAndGlyphs" textLength="115" x="424.5" y="407.0151">getCompleteTower()</text><ellipse cx="415.5" cy="416.6094" fill="#84BE84" rx="3" ry="3" style="stroke: #038048; stroke-width: 1.0;"/><text fill="#000000" font-family="sans-serif" font-size="11" lengthAdjust="spacingAndGlyphs" textLength="106" x="424.5" y="419.8198">getPlayerInGame()</text><ellipse cx="415.5" cy="429.4141" fill="#84BE84" rx="3" ry="3" style="stroke: #038048; stroke-width: 1.0;"/><text fill="#000000" font-family="sans-serif" font-size="11" lengthAdjust="spacingAndGlyphs" textLength="97" x="424.5" y="432.6245">getPlayerMatrix()</text><ellipse cx="415.5" cy="442.2188" fill="#84BE84" rx="3" ry="3" style="stroke: #038048; stroke-width: 1.0;"/><text fill="#000000" font-family="sans-serif" font-size="11" lengthAdjust="spacingAndGlyphs" textLength="102" x="424.5" y="445.4292">getPlayerWinner()</text><ellipse cx="415.5" cy="455.0234" fill="#84BE84" rx="3" ry="3" style="stroke: #038048; stroke-width: 1.0;"/><text fill="#000000" font-family="sans-serif" font-size="11" lengthAdjust="spacingAndGlyphs" textLength="113" x="424.5" y="458.2339">getPlayersNumber()</text><ellipse cx="415.5" cy="467.8281" fill="#84BE84" rx="3" ry="3" style="stroke: #038048; stroke-width: 1.0;"/><text fill="#000000" font-family="sans-serif" font-size="11" lengthAdjust="spacingAndGlyphs" textLength="145" x="424.5" y="471.0386">increaseCompleteTower()</text><ellipse cx="415.5" cy="480.6328" fill="#84BE84" rx="3" ry="3" style="stroke: #038048; stroke-width: 1.0;"/><text fill="#000000" font-family="sans-serif" font-size="11" lengthAdjust="spacingAndGlyphs" textLength="61" x="424.5" y="483.8433">isNotWon()</text><ellipse cx="415.5" cy="493.4375" fill="#84BE84" rx="3" ry="3" style="stroke: #038048; stroke-width: 1.0;"/><text fill="#000000" font-family="sans-serif" font-size="11" lengthAdjust="spacingAndGlyphs" textLength="31" x="424.5" y="496.6479">lose()</text><ellipse cx="415.5" cy="506.2422" fill="#84BE84" rx="3" ry="3" style="stroke: #038048; stroke-width: 1.0;"/><text fill="#000000" font-family="sans-serif" font-size="11" lengthAdjust="spacingAndGlyphs" textLength="27" x="424.5" y="509.4526">win()</text><!--MD5=[b3eb984bea951b351caed148fa51dfe9]
class it.polimi.ingsw.ps60.serverSide.model.Cell--><rect fill="#FEFECE" filter="url(#f1r6bmdjqr0xrl)" height="214.4609" id="it.polimi.ingsw.ps60.serverSide.model.Cell" style="stroke: #A80036; stroke-width: 1.5;" width="166" x="404" y="1188.9531"/><ellipse cx="472.25" cy="1204.9531" fill="#ADD1B2" rx="11" ry="11" style="stroke: #A80036; stroke-width: 1.0;"/><path d="M474.7188,1210.8281 Q474.1406,1211.1406 473.5,1211.2969 Q472.8594,1211.4531 472.1563,1211.4531 Q469.6563,1211.4531 468.3281,1209.7813 Q467.0156,1208.1094 467.0156,1204.9531 Q467.0156,1201.7969 468.3281,1200.125 Q469.6563,1198.4531 472.1563,1198.4531 Q472.8594,1198.4531 473.5,1198.6094 Q474.1563,1198.7656 474.7188,1199.0781 L474.7188,1201.875 Q474.0938,1201.3125 473.5,1201.0469 Q472.9063,1200.7656 472.2813,1200.7656 Q470.9375,1200.7656 470.25,1201.8281 Q469.5625,1202.8906 469.5625,1204.9531 Q469.5625,1207.0313 470.25,1208.0938 Q470.9375,1209.1406 472.2813,1209.1406 Q472.9063,1209.1406 473.5,1208.875 Q474.0938,1208.6094 474.7188,1208.0313 L474.7188,1210.8281 Z "/><text fill="#000000" font-family="sans-serif" font-size="12" lengthAdjust="spacingAndGlyphs" textLength="21" x="492.75" y="1209.1074">Cell</text><line style="stroke: #A80036; stroke-width: 1.5;" x1="405" x2="569" y1="1220.9531" y2="1220.9531"/><rect fill="none" height="6" style="stroke: #C82930; stroke-width: 1.0;" width="6" x="412" y="1228.9531"/><text fill="#000000" font-family="sans-serif" font-size="11" lengthAdjust="spacingAndGlyphs" textLength="100" x="424" y="1235.1636">buildingLevel : int</text><rect fill="none" height="6" style="stroke: #C82930; stroke-width: 1.0;" width="6" x="412" y="1241.7578"/><text fill="#000000" font-family="sans-serif" font-size="11" lengthAdjust="spacingAndGlyphs" textLength="89" x="424" y="1247.9683">dome : boolean</text><rect fill="none" height="6" style="stroke: #C82930; stroke-width: 1.0;" width="6" x="412" y="1254.5625"/><text fill="#000000" font-family="sans-serif" font-size="11" lengthAdjust="spacingAndGlyphs" textLength="78" x="424" y="1260.7729">position : int[]</text><line style="stroke: #A80036; stroke-width: 1.5;" x1="405" x2="569" y1="1267.3672" y2="1267.3672"/><ellipse cx="415" cy="1278.3672" fill="#84BE84" rx="3" ry="3" style="stroke: #038048; stroke-width: 1.0;"/><text fill="#000000" font-family="sans-serif" font-size="11" lengthAdjust="spacingAndGlyphs" textLength="29" x="424" y="1281.5776">Cell()</text><ellipse cx="415" cy="1291.1719" fill="#84BE84" rx="3" ry="3" style="stroke: #038048; stroke-width: 1.0;"/><text fill="#000000" font-family="sans-serif" font-size="11" lengthAdjust="spacingAndGlyphs" textLength="68" x="424" y="1294.3823">buildDome()</text><ellipse cx="415" cy="1303.9766" fill="#84BE84" rx="3" ry="3" style="stroke: #038048; stroke-width: 1.0;"/><text fill="#000000" font-family="sans-serif" font-size="11" lengthAdjust="spacingAndGlyphs" textLength="101" x="424" y="1307.187">getBuildingLevel()</text><ellipse cx="415" cy="1316.7813" fill="#84BE84" rx="3" ry="3" style="stroke: #038048; stroke-width: 1.0;"/><text fill="#000000" font-family="sans-serif" font-size="11" lengthAdjust="spacingAndGlyphs" textLength="70" x="424" y="1319.9917">getPosition()</text><ellipse cx="415" cy="1329.5859" fill="#84BE84" rx="3" ry="3" style="stroke: #038048; stroke-width: 1.0;"/><text fill="#000000" font-family="sans-serif" font-size="11" lengthAdjust="spacingAndGlyphs" textLength="77" x="424" y="1332.7964">getWorkerIn()</text><ellipse cx="415" cy="1342.3906" fill="#84BE84" rx="3" ry="3" style="stroke: #038048; stroke-width: 1.0;"/><text fill="#000000" font-family="sans-serif" font-size="11" lengthAdjust="spacingAndGlyphs" textLength="140" x="424" y="1345.6011">incrementBuildingLevel()</text><ellipse cx="415" cy="1355.1953" fill="#84BE84" rx="3" ry="3" style="stroke: #038048; stroke-width: 1.0;"/><text fill="#000000" font-family="sans-serif" font-size="11" lengthAdjust="spacingAndGlyphs" textLength="57" x="424" y="1358.4058">isDomed()</text><ellipse cx="415" cy="1368" fill="#84BE84" rx="3" ry="3" style="stroke: #038048; stroke-width: 1.0;"/><text fill="#000000" font-family="sans-serif" font-size="11" lengthAdjust="spacingAndGlyphs" textLength="42" x="424" y="1371.2104">isFree()</text><ellipse cx="415" cy="1380.8047" fill="#84BE84" rx="3" ry="3" style="stroke: #038048; stroke-width: 1.0;"/><text fill="#000000" font-family="sans-serif" font-size="11" lengthAdjust="spacingAndGlyphs" textLength="76" x="424" y="1384.0151">setWorkerIn()</text><rect fill="#F24D5C" height="6" style="stroke: #C82930; stroke-width: 1.0;" width="6" x="412" y="1390.6094"/><text fill="#000000" font-family="sans-serif" font-size="11" lengthAdjust="spacingAndGlyphs" textLength="110" x="424" y="1396.8198">updateCellToSend()</text><!--MD5=[12d69bee7ce472b37551d23208c0fc85]
class it.polimi.ingsw.ps60.serverSide.model.Player--><rect fill="#FEFECE" filter="url(#f1r6bmdjqr0xrl)" height="304.0938" id="it.polimi.ingsw.ps60.serverSide.model.Player" style="stroke: #A80036; stroke-width: 1.5;" width="287" x="441.5" y="592.9531"/><ellipse cx="562.75" cy="608.9531" fill="#ADD1B2" rx="11" ry="11" style="stroke: #A80036; stroke-width: 1.0;"/><path d="M565.2188,614.8281 Q564.6406,615.1406 564,615.2969 Q563.3594,615.4531 562.6563,615.4531 Q560.1563,615.4531 558.8281,613.7813 Q557.5156,612.1094 557.5156,608.9531 Q557.5156,605.7969 558.8281,604.125 Q560.1563,602.4531 562.6563,602.4531 Q563.3594,602.4531 564,602.6094 Q564.6563,602.7656 565.2188,603.0781 L565.2188,605.875 Q564.5938,605.3125 564,605.0469 Q563.4063,604.7656 562.7813,604.7656 Q561.4375,604.7656 560.75,605.8281 Q560.0625,606.8906 560.0625,608.9531 Q560.0625,611.0313 560.75,612.0938 Q561.4375,613.1406 562.7813,613.1406 Q563.4063,613.1406 564,612.875 Q564.5938,612.6094 565.2188,612.0313 L565.2188,614.8281 Z "/><text fill="#000000" font-family="sans-serif" font-size="12" lengthAdjust="spacingAndGlyphs" textLength="36" x="583.25" y="613.1074">Player</text><line style="stroke: #A80036; stroke-width: 1.5;" x1="442.5" x2="727.5" y1="624.9531" y2="624.9531"/><rect fill="none" height="6" style="stroke: #C82930; stroke-width: 1.0;" width="6" x="449.5" y="632.9531"/><text fill="#000000" font-family="sans-serif" font-size="11" lengthAdjust="spacingAndGlyphs" textLength="140" x="461.5" y="639.1636">buildByWorker : boolean</text><rect fill="none" height="6" style="stroke: #C82930; stroke-width: 1.0;" width="6" x="449.5" y="645.7578"/><text fill="#000000" font-family="sans-serif" font-size="11" lengthAdjust="spacingAndGlyphs" textLength="94" x="461.5" y="651.9683">divinityCard : int</text><rect fill="none" height="6" style="stroke: #C82930; stroke-width: 1.0;" width="6" x="449.5" y="658.5625"/><text fill="#000000" font-family="sans-serif" font-size="11" lengthAdjust="spacingAndGlyphs" textLength="99" x="461.5" y="664.7729">nickname : String</text><rect fill="none" height="6" style="stroke: #C82930; stroke-width: 1.0;" width="6" x="449.5" y="671.3672"/><text fill="#000000" font-family="sans-serif" font-size="11" lengthAdjust="spacingAndGlyphs" textLength="106" x="461.5" y="677.5776">workers : Worker[]</text><rect fill="none" height="6" style="stroke: #C82930; stroke-width: 1.0;" width="6" x="449.5" y="684.1719"/><text fill="#000000" font-family="sans-serif" font-size="11" lengthAdjust="spacingAndGlyphs" textLength="126" x="461.5" y="690.3823">bitException : boolean</text><line style="stroke: #A80036; stroke-width: 1.5;" x1="442.5" x2="727.5" y1="696.9766" y2="696.9766"/><ellipse cx="452.5" cy="707.9766" fill="#84BE84" rx="3" ry="3" style="stroke: #038048; stroke-width: 1.0;"/><text fill="#000000" font-family="sans-serif" font-size="11" lengthAdjust="spacingAndGlyphs" textLength="44" x="461.5" y="711.187">Player()</text><ellipse cx="452.5" cy="720.7813" fill="#84BE84" rx="3" ry="3" style="stroke: #038048; stroke-width: 1.0;"/><text fill="#000000" font-family="sans-serif" font-size="11" lengthAdjust="spacingAndGlyphs" textLength="95" x="461.5" y="723.9917">getDivinityCard()</text><ellipse cx="452.5" cy="733.5859" fill="#84BE84" rx="3" ry="3" style="stroke: #038048; stroke-width: 1.0;"/><text fill="#000000" font-family="sans-serif" font-size="11" lengthAdjust="spacingAndGlyphs" textLength="116" x="461.5" y="736.7964">getDivinityStrategy()</text><ellipse cx="452.5" cy="746.3906" fill="#84BE84" rx="3" ry="3" style="stroke: #038048; stroke-width: 1.0;"/><text fill="#000000" font-family="sans-serif" font-size="11" lengthAdjust="spacingAndGlyphs" textLength="81" x="461.5" y="749.6011">getNickname()</text><ellipse cx="452.5" cy="759.1953" fill="#84BE84" rx="3" ry="3" style="stroke: #038048; stroke-width: 1.0;"/><text fill="#000000" font-family="sans-serif" font-size="11" lengthAdjust="spacingAndGlyphs" textLength="104" x="461.5" y="762.4058">getServerThread()</text><ellipse cx="452.5" cy="772" fill="#84BE84" rx="3" ry="3" style="stroke: #038048; stroke-width: 1.0;"/><text fill="#000000" font-family="sans-serif" font-size="11" lengthAdjust="spacingAndGlyphs" textLength="67" x="461.5" y="775.2104">getWorker()</text><ellipse cx="452.5" cy="784.8047" fill="#84BE84" rx="3" ry="3" style="stroke: #038048; stroke-width: 1.0;"/><text fill="#000000" font-family="sans-serif" font-size="11" lengthAdjust="spacingAndGlyphs" textLength="104" x="461.5" y="788.0151">getWorkerMoved()</text><ellipse cx="452.5" cy="797.6094" fill="#84BE84" rx="3" ry="3" style="stroke: #038048; stroke-width: 1.0;"/><text fill="#000000" font-family="sans-serif" font-size="11" lengthAdjust="spacingAndGlyphs" textLength="73" x="461.5" y="800.8198">getWorkers()</text><ellipse cx="452.5" cy="810.4141" fill="#84BE84" rx="3" ry="3" style="stroke: #038048; stroke-width: 1.0;"/><text fill="#000000" font-family="sans-serif" font-size="11" lengthAdjust="spacingAndGlyphs" textLength="101" x="461.5" y="813.6245">isBuildByWorker()</text><ellipse cx="452.5" cy="823.2188" fill="#84BE84" rx="3" ry="3" style="stroke: #038048; stroke-width: 1.0;"/><text fill="#000000" font-family="sans-serif" font-size="11" lengthAdjust="spacingAndGlyphs" textLength="109" x="461.5" y="826.4292">setBuildByWorker()</text><ellipse cx="452.5" cy="836.0234" fill="#84BE84" rx="3" ry="3" style="stroke: #038048; stroke-width: 1.0;"/><text fill="#000000" font-family="sans-serif" font-size="11" lengthAdjust="spacingAndGlyphs" textLength="94" x="461.5" y="839.2339">setDivinityCard()</text><ellipse cx="452.5" cy="848.8281" fill="#84BE84" rx="3" ry="3" style="stroke: #038048; stroke-width: 1.0;"/><text fill="#000000" font-family="sans-serif" font-size="11" lengthAdjust="spacingAndGlyphs" textLength="103" x="461.5" y="852.0386">setServerThread()</text><ellipse cx="452.5" cy="861.6328" fill="#84BE84" rx="3" ry="3" style="stroke: #038048; stroke-width: 1.0;"/><text fill="#000000" font-family="sans-serif" font-size="11" lengthAdjust="spacingAndGlyphs" textLength="103" x="461.5" y="864.8433">setWorkerMoved()</text><ellipse cx="452.5" cy="874.4375" fill="#84BE84" rx="3" ry="3" style="stroke: #038048; stroke-width: 1.0;"/><text fill="#000000" font-family="sans-serif" font-size="11" lengthAdjust="spacingAndGlyphs" textLength="148" x="461.5" y="877.6479">isBitException () : boolean</text><ellipse cx="452.5" cy="887.2422" fill="#84BE84" rx="3" ry="3" style="stroke: #038048; stroke-width: 1.0;"/><text fill="#000000" font-family="sans-serif" font-size="11" lengthAdjust="spacingAndGlyphs" textLength="261" x="461.5" y="890.4526">setBitException (bitException : boolean) : void</text><!--MD5=[6f4fe5574216ddb0115856f06c715a82]
class it.polimi.ingsw.ps60.serverSide.model.Worker--><rect fill="#FEFECE" filter="url(#f1r6bmdjqr0xrl)" height="137.6328" id="it.polimi.ingsw.ps60.serverSide.model.Worker" style="stroke: #A80036; stroke-width: 1.5;" width="117" x="565.5" y="973.9531"/><ellipse cx="599.4" cy="989.9531" fill="#ADD1B2" rx="11" ry="11" style="stroke: #A80036; stroke-width: 1.0;"/><path d="M601.8688,995.8281 Q601.2906,996.1406 600.65,996.2969 Q600.0094,996.4531 599.3063,996.4531 Q596.8063,996.4531 595.4781,994.7813 Q594.1656,993.1094 594.1656,989.9531 Q594.1656,986.7969 595.4781,985.125 Q596.8063,983.4531 599.3063,983.4531 Q600.0094,983.4531 600.65,983.6094 Q601.3063,983.7656 601.8688,984.0781 L601.8688,986.875 Q601.2438,986.3125 600.65,986.0469 Q600.0563,985.7656 599.4313,985.7656 Q598.0875,985.7656 597.4,986.8281 Q596.7125,987.8906 596.7125,989.9531 Q596.7125,992.0313 597.4,993.0938 Q598.0875,994.1406 599.4313,994.1406 Q600.0563,994.1406 600.65,993.875 Q601.2438,993.6094 601.8688,993.0313 L601.8688,995.8281 Z "/><text fill="#000000" font-family="sans-serif" font-size="12" lengthAdjust="spacingAndGlyphs" textLength="43" x="617.6" y="994.1074">Worker</text><line style="stroke: #A80036; stroke-width: 1.5;" x1="566.5" x2="681.5" y1="1005.9531" y2="1005.9531"/><line style="stroke: #A80036; stroke-width: 1.5;" x1="566.5" x2="681.5" y1="1013.9531" y2="1013.9531"/><ellipse cx="576.5" cy="1024.9531" fill="#84BE84" rx="3" ry="3" style="stroke: #038048; stroke-width: 1.0;"/><text fill="#000000" font-family="sans-serif" font-size="11" lengthAdjust="spacingAndGlyphs" textLength="49" x="585.5" y="1028.1636">Worker()</text><ellipse cx="576.5" cy="1037.7578" fill="#84BE84" rx="3" ry="3" style="stroke: #038048; stroke-width: 1.0;"/><text fill="#000000" font-family="sans-serif" font-size="11" lengthAdjust="spacingAndGlyphs" textLength="91" x="585.5" y="1040.9683">getCellPosition()</text><ellipse cx="576.5" cy="1050.5625" fill="#84BE84" rx="3" ry="3" style="stroke: #038048; stroke-width: 1.0;"/><text fill="#000000" font-family="sans-serif" font-size="11" lengthAdjust="spacingAndGlyphs" textLength="66" x="585.5" y="1053.7729">getOldCell()</text><ellipse cx="576.5" cy="1063.3672" fill="#84BE84" rx="3" ry="3" style="stroke: #038048; stroke-width: 1.0;"/><text fill="#000000" font-family="sans-serif" font-size="11" lengthAdjust="spacingAndGlyphs" textLength="63" x="585.5" y="1066.5776">getOwner()</text><ellipse cx="576.5" cy="1076.1719" fill="#84BE84" rx="3" ry="3" style="stroke: #038048; stroke-width: 1.0;"/><text fill="#000000" font-family="sans-serif" font-size="11" lengthAdjust="spacingAndGlyphs" textLength="76" x="585.5" y="1079.3823">isLeveledUp()</text><ellipse cx="576.5" cy="1088.9766" fill="#84BE84" rx="3" ry="3" style="stroke: #038048; stroke-width: 1.0;"/><text fill="#000000" font-family="sans-serif" font-size="11" lengthAdjust="spacingAndGlyphs" textLength="81" x="585.5" y="1092.187">moveWorker()</text><ellipse cx="576.5" cy="1101.7813" fill="#84BE84" rx="3" ry="3" style="stroke: #038048; stroke-width: 1.0;"/><text fill="#000000" font-family="sans-serif" font-size="11" lengthAdjust="spacingAndGlyphs" textLength="65" x="585.5" y="1104.9917">setOldCell()</text><!--MD5=[5a5af9b0547913863cbe0ddf55a9ab5e]
class java.io.Serializable--><rect fill="#FEFECE" filter="url(#f1r6bmdjqr0xrl)" height="48" id="java.io.Serializable" style="stroke: #A80036; stroke-width: 1.5;" width="99" x="657.5" y="79.9531"/><ellipse cx="672.5" cy="95.9531" fill="#ADD1B2" rx="11" ry="11" style="stroke: #A80036; stroke-width: 1.0;"/><path d="M674.9688,101.8281 Q674.3906,102.1406 673.75,102.2969 Q673.1094,102.4531 672.4063,102.4531 Q669.9063,102.4531 668.5781,100.7813 Q667.2656,99.1094 667.2656,95.9531 Q667.2656,92.7969 668.5781,91.125 Q669.9063,89.4531 672.4063,89.4531 Q673.1094,89.4531 673.75,89.6094 Q674.4063,89.7656 674.9688,90.0781 L674.9688,92.875 Q674.3438,92.3125 673.75,92.0469 Q673.1563,91.7656 672.5313,91.7656 Q671.1875,91.7656 670.5,92.8281 Q669.8125,93.8906 669.8125,95.9531 Q669.8125,98.0313 670.5,99.0938 Q671.1875,100.1406 672.5313,100.1406 Q673.1563,100.1406 673.75,99.875 Q674.3438,99.6094 674.9688,99.0313 L674.9688,101.8281 Z "/><text fill="#000000" font-family="sans-serif" font-size="12" lengthAdjust="spacingAndGlyphs" textLength="67" x="686.5" y="100.1074">Serializable</text><line style="stroke: #A80036; stroke-width: 1.5;" x1="658.5" x2="755.5" y1="111.9531" y2="111.9531"/><line style="stroke: #A80036; stroke-width: 1.5;" x1="658.5" x2="755.5" y1="119.9531" y2="119.9531"/><!--MD5=[355630cba91219728d50195504d4875f]
class it.polimi.ingsw.ps60.serverSide.server.ServerThread--><rect fill="#FEFECE" filter="url(#f1r6bmdjqr0xrl)" height="48" id="it.polimi.ingsw.ps60.serverSide.server.ServerThread" style="stroke: #A80036; stroke-width: 1.5;" width="113" x="234.5" y="1018.9531"/><ellipse cx="249.5" cy="1034.9531" fill="#ADD1B2" rx="11" ry="11" style="stroke: #A80036; stroke-width: 1.0;"/><path d="M251.9688,1040.8281 Q251.3906,1041.1406 250.75,1041.2969 Q250.1094,1041.4531 249.4063,1041.4531 Q246.9063,1041.4531 245.5781,1039.7813 Q244.2656,1038.1094 244.2656,1034.9531 Q244.2656,1031.7969 245.5781,1030.125 Q246.9063,1028.4531 249.4063,1028.4531 Q250.1094,1028.4531 250.75,1028.6094 Q251.4063,1028.7656 251.9688,1029.0781 L251.9688,1031.875 Q251.3438,1031.3125 250.75,1031.0469 Q250.1563,1030.7656 249.5313,1030.7656 Q248.1875,1030.7656 247.5,1031.8281 Q246.8125,1032.8906 246.8125,1034.9531 Q246.8125,1037.0313 247.5,1038.0938 Q248.1875,1039.1406 249.5313,1039.1406 Q250.1563,1039.1406 250.75,1038.875 Q251.3438,1038.6094 251.9688,1038.0313 L251.9688,1040.8281 Z "/><text fill="#000000" font-family="sans-serif" font-size="12" lengthAdjust="spacingAndGlyphs" textLength="81" x="263.5" y="1039.1074">ServerThread</text><line style="stroke: #A80036; stroke-width: 1.5;" x1="235.5" x2="346.5" y1="1050.9531" y2="1050.9531"/><line style="stroke: #A80036; stroke-width: 1.5;" x1="235.5" x2="346.5" y1="1058.9531" y2="1058.9531"/><!--MD5=[1ecd602f4b5f8e3c7e2e76c14009e2de]
reverse link java.io.Serializable to it.polimi.ingsw.ps60.serverSide.model.Board--><path d="M681.42,145.2031 C669.57,163.8331 654.69,187.2531 639.09,211.7831 " fill="none" id="java.io.Serializable&lt;-it.polimi.ingsw.ps60.serverSide.model.Board" style="stroke: #A80036; stroke-width: 1.0; stroke-dasharray: 7.0,7.0;"/><polygon fill="none" points="675.52,141.4231,692.16,128.3031,687.34,148.9331,675.52,141.4231" style="stroke: #A80036; stroke-width: 1.0;"/><!--MD5=[dd6bde4bde2bf26a88bce60870d16969]
reverse link it.polimi.ingsw.ps60.serverSide.model.Board to it.polimi.ingsw.ps60.serverSide.model.Player--><path d="M561.2,529.2131 C563.55,550.3631 565.94,571.9431 568.26,592.8731 " fill="none" id="it.polimi.ingsw.ps60.serverSide.model.Board&lt;-it.polimi.ingsw.ps60.serverSide.model.Player" style="stroke: #A80036; stroke-width: 1.0;"/><polygon fill="#FFFFFF" points="559.75,516.1031,556.4339,522.5065,561.0694,528.0304,564.3854,521.627,559.75,516.1031" style="stroke: #A80036; stroke-width: 1.0;"/><text fill="#000000" font-family="sans-serif" font-size="13" lengthAdjust="spacingAndGlyphs" textLength="87" x="565" y="559.02">playerWinner</text><!--MD5=[157249acc3d3769de8641534c1137897]
reverse link java.io.Serializable to it.polimi.ingsw.ps60.serverSide.model.Cell--><path d="M637.5,115.3031 C460.38,143.6231 6,229.3131 6,362.9531 C6,362.9531 6,362.9531 6,1043.9531 C6,1221.2731 266.1,1273.5331 403.77,1288.7731 " fill="none" id="java.io.Serializable&lt;-it.polimi.ingsw.ps60.serverSide.model.Cell" style="stroke: #A80036; stroke-width: 1.0; stroke-dasharray: 7.0,7.0;"/><polygon fill="none" points="636.58,108.3631,657.43,112.1731,638.76,122.1931,636.58,108.3631" style="stroke: #A80036; stroke-width: 1.0;"/><!--MD5=[32c7f5ba7aaae7b55f2646aad01d3490]
reverse link it.polimi.ingsw.ps60.serverSide.model.Cell to it.polimi.ingsw.ps60.serverSide.model.Board--><path d="M452.88,1175.7431 C417.84,1034.6331 374.82,793.4831 424,592.9531 C430.33,567.1531 440.14,541.0231 451.48,516.1231 " fill="none" id="it.polimi.ingsw.ps60.serverSide.model.Cell&lt;-it.polimi.ingsw.ps60.serverSide.model.Board" style="stroke: #A80036; stroke-width: 1.0;"/><polygon fill="#FFFFFF" points="456.14,1188.6631,458.5545,1181.8683,453.2109,1177.0261,450.7965,1183.821,456.14,1188.6631" style="stroke: #A80036; stroke-width: 1.0;"/><text fill="#000000" font-family="sans-serif" font-size="13" lengthAdjust="spacingAndGlyphs" textLength="37" x="411" y="940.02">board</text><!--MD5=[210881a6d48a02b1ce3eaeba1648a5d4]
reverse link it.polimi.ingsw.ps60.serverSide.model.Cell to it.polimi.ingsw.ps60.serverSide.model.Worker--><path d="M579.74,1228.6631 C600.48,1208.8131 619.67,1185.2431 631,1158.9531 C637.25,1144.4431 638.98,1127.9331 638.38,1112.0431 " fill="none" id="it.polimi.ingsw.ps60.serverSide.model.Cell&lt;-it.polimi.ingsw.ps60.serverSide.model.Worker" style="stroke: #A80036; stroke-width: 1.0;"/><polygon fill="#FFFFFF" points="570.12,1237.5131,577.2442,1236.3968,578.9538,1229.3913,571.8296,1230.5076,570.12,1237.5131" style="stroke: #A80036; stroke-width: 1.0;"/><text fill="#000000" font-family="sans-serif" font-size="13" lengthAdjust="spacingAndGlyphs" textLength="57" x="636" y="1155.02">workerIn</text><!--MD5=[23c5a031bb6c3ceb9a87ae4cdc0276cb]
reverse link it.polimi.ingsw.ps60.serverSide.model.Worker to it.polimi.ingsw.ps60.serverSide.model.Cell--><path d="M580.44,1123.7531 C569.22,1144.3231 556.95,1166.7931 545.11,1188.4831 " fill="none" id="it.polimi.ingsw.ps60.serverSide.model.Worker&lt;-it.polimi.ingsw.ps60.serverSide.model.Cell" style="stroke: #A80036; stroke-width: 1.0;"/><polygon fill="#FFFFFF" points="586.75,1112.2131,580.3647,1115.564,581.0019,1122.7469,587.3872,1119.396,586.75,1112.2131" style="stroke: #A80036; stroke-width: 1.0;"/><text fill="#000000" font-family="sans-serif" font-size="13" lengthAdjust="spacingAndGlyphs" textLength="47" x="568" y="1155.02">OldCell</text><!--MD5=[23c5a031bb6c3ceb9a87ae4cdc0276cb]
reverse link it.polimi.ingsw.ps60.serverSide.model.Worker to it.polimi.ingsw.ps60.serverSide.model.Cell--><path d="M553.37,1073.0531 C524.55,1088.8731 494.22,1111.5331 478,1141.9531 C470.36,1156.2731 466.88,1172.4631 466,1188.8031 " fill="none" id="it.polimi.ingsw.ps60.serverSide.model.Worker&lt;-it.polimi.ingsw.ps60.serverSide.model.Cell-1" style="stroke: #A80036; stroke-width: 1.0;"/><polygon fill="#FFFFFF" points="565.16,1066.9031,557.9903,1066.1319,554.5207,1072.4535,561.6905,1073.2247,565.16,1066.9031" style="stroke: #A80036; stroke-width: 1.0;"/><text fill="#000000" font-family="sans-serif" font-size="13" lengthAdjust="spacingAndGlyphs" textLength="75" x="479" y="1155.02">cellPosition</text><!--MD5=[dc253888d36f76ac4087f2d98f6b65b9]
reverse link java.io.Serializable to it.polimi.ingsw.ps60.serverSide.model.Player--><path d="M712.34,148.4231 C720.31,224.3131 731.17,385.3631 699,515.9531 C692.67,541.6231 683.09,567.7431 672.12,592.6831 " fill="none" id="java.io.Serializable&lt;-it.polimi.ingsw.ps60.serverSide.model.Player" style="stroke: #A80036; stroke-width: 1.0; stroke-dasharray: 7.0,7.0;"/><polygon fill="none" points="705.34,148.7931,710.06,128.1331,719.25,147.2331,705.34,148.7931" style="stroke: #A80036; stroke-width: 1.0;"/><!--MD5=[7b9c8050e81ddac43de2c39ca9a85594]
reverse link it.polimi.ingsw.ps60.serverSide.model.Player to it.polimi.ingsw.ps60.serverSide.server.ServerThread--><path d="M429.93,815.5931 C383.75,843.7331 337.61,880.6931 308,926.9531 C290.16,954.8331 288.2,994.1831 289.09,1018.8731 " fill="none" id="it.polimi.ingsw.ps60.serverSide.model.Player&lt;-it.polimi.ingsw.ps60.serverSide.server.ServerThread" style="stroke: #A80036; stroke-width: 1.0;"/><polygon fill="#FFFFFF" points="441.35,808.8131,434.149,808.4308,431.0265,814.9308,438.2275,815.3131,441.35,808.8131" style="stroke: #A80036; stroke-width: 1.0;"/><text fill="#000000" font-family="sans-serif" font-size="13" lengthAdjust="spacingAndGlyphs" textLength="86" x="309" y="940.02">serverThread</text><!--MD5=[d75352defa96bd1648e475761b683df0]
reverse link it.polimi.ingsw.ps60.serverSide.model.Player to it.polimi.ingsw.ps60.serverSide.model.Worker--><path d="M527.69,910.2131 C528.5,921.7331 530.8,933.0831 535,943.9531 C541.71,961.3231 553.08,977.5031 565.5,991.5231 " fill="none" id="it.polimi.ingsw.ps60.serverSide.model.Player&lt;-it.polimi.ingsw.ps60.serverSide.model.Worker" style="stroke: #A80036; stroke-width: 1.0;"/><polygon fill="#FFFFFF" points="527.38,897.1531,523.5262,903.248,527.67,909.1496,531.5238,903.0547,527.38,897.1531" style="stroke: #A80036; stroke-width: 1.0;"/><text fill="#000000" font-family="sans-serif" font-size="13" lengthAdjust="spacingAndGlyphs" textLength="88" x="536" y="940.02">workerMoved</text><!--MD5=[b44da9c172d00c4a00652af3a7247e02]
reverse link it.polimi.ingsw.ps60.serverSide.model.Worker to it.polimi.ingsw.ps60.serverSide.model.Player--><path d="M628.47,960.5631 C628.68,954.9431 628.86,949.3631 629,943.9531 C629.19,936.4031 629.9,934.4531 629,926.9531 C627.83,917.1631 626.31,907.1331 624.54,897.0631 " fill="none" id="it.polimi.ingsw.ps60.serverSide.model.Worker&lt;-it.polimi.ingsw.ps60.serverSide.model.Player" style="stroke: #A80036; stroke-width: 1.0;"/><polygon fill="#FFFFFF" points="627.93,973.6931,632.1707,967.8608,628.418,961.7031,624.1773,967.5354,627.93,973.6931" style="stroke: #A80036; stroke-width: 1.0;"/><text fill="#000000" font-family="sans-serif" font-size="13" lengthAdjust="spacingAndGlyphs" textLength="40" x="630" y="940.02">owner</text><!--MD5=[95ee5787f73552af2453eb87cf4ee947]
reverse link java.io.Serializable to it.polimi.ingsw.ps60.serverSide.model.Worker--><path d="M733.65,145.6531 C735.8,150.3331 737.66,155.1531 739,159.9531 C826.86,475.5231 858.24,589.2131 746,896.9531 C733.09,932.3431 707.33,965.0831 682.78,990.4631 " fill="none" id="java.io.Serializable&lt;-it.polimi.ingsw.ps60.serverSide.model.Worker" style="stroke: #A80036; stroke-width: 1.0; stroke-dasharray: 7.0,7.0;"/><polygon fill="none" points="727.51,149.0231,724.02,128.1231,739.78,142.2831,727.51,149.0231" style="stroke: #A80036; stroke-width: 1.0;"/><!--MD5=[c89535271a887b9ce043c2d48bf702bc]
@startuml
title PS60's model UML

namespace it.polimi.ingsw.ps60.serverSide.model{
            class it.polimi.ingsw.ps60.serverSide.model.Board {
                - cellMatrix : Cell[][]
                - cellToSend : char[]
                - completeTower : int
                - playerInGame : CircularListIterator<Player>
                - playerList : CircularLinkedList<Player>
                - playerMatrix : Player[]
                - playersNumber : int
                + Board()
                + changeTurn()
                + getCellByPosition()
                + getCellToSend()
                + getCompleteTower()
                + getPlayerInGame()
                + getPlayerMatrix()
                + getPlayerWinner()
                + getPlayersNumber()
                + increaseCompleteTower()
                + isNotWon()
                + lose()
                + win()
            }

            class it.polimi.ingsw.ps60.serverSide.model.Cell {
                - buildingLevel : int
                - dome : boolean
                - position : int[]
                + Cell()
                + buildDome()
                + getBuildingLevel()
                + getPosition()
                + getWorkerIn()
                + incrementBuildingLevel()
                + isDomed()
                + isFree()
                + setWorkerIn()
                - updateCellToSend()
            }

            class it.polimi.ingsw.ps60.serverSide.model.Player {
                - buildByWorker : boolean
                - divinityCard : int
                - nickname : String
                - workers : Worker[]
                - bitException : boolean
                + Player()
                + getDivinityCard()
                + getDivinityStrategy()
                + getNickname()
                + getServerThread()
                + getWorker()
                + getWorkerMoved()
                + getWorkers()
                + isBuildByWorker()
                + setBuildByWorker()
                + setDivinityCard()
                + setServerThread()
                + setWorkerMoved()
                + isBitException () : boolean
                + setBitException (bitException : boolean) : void
            }

            class it.polimi.ingsw.ps60.serverSide.model.Worker {
                + Worker()
                + getCellPosition()
                + getOldCell()
                + getOwner()
                + isLeveledUp()
                + moveWorker()
                + setOldCell()
            }
}

    it.polimi.ingsw.ps60.serverSide.model.Board .up.|> java.io.Serializable
    it.polimi.ingsw.ps60.serverSide.model.Board o- - it.polimi.ingsw.ps60.serverSide.model.Player : playerWinner
    it.polimi.ingsw.ps60.serverSide.model.Cell .up.|> java.io.Serializable
    it.polimi.ingsw.ps60.serverSide.model.Cell o- - it.polimi.ingsw.ps60.serverSide.model.Board : board
    it.polimi.ingsw.ps60.serverSide.model.Cell o- - it.polimi.ingsw.ps60.serverSide.model.Worker : workerIn
    it.polimi.ingsw.ps60.serverSide.model.Player .up.|> java.io.Serializable
    it.polimi.ingsw.ps60.serverSide.model.Player o- - it.polimi.ingsw.ps60.serverSide.server.ServerThread : serverThread
    it.polimi.ingsw.ps60.serverSide.model.Player o- - it.polimi.ingsw.ps60.serverSide.model.Worker : workerMoved
    it.polimi.ingsw.ps60.serverSide.model.Worker .up.|> java.io.Serializable
    it.polimi.ingsw.ps60.serverSide.model.Worker o- - it.polimi.ingsw.ps60.serverSide.model.Cell : OldCell
    it.polimi.ingsw.ps60.serverSide.model.Worker o- - it.polimi.ingsw.ps60.serverSide.model.Cell : cellPosition
    it.polimi.ingsw.ps60.serverSide.model.Worker o- - it.polimi.ingsw.ps60.serverSide.model.Player : owner
@enduml

PlantUML version 1.2020.09(Sun May 10 12:51:06 CEST 2020)
(GPL source distribution)
Java Runtime: OpenJDK Runtime Environment
JVM: OpenJDK 64-Bit Server VM
Java Version: 11.0.7+10-b765.53
Operating System: Linux
Default Encoding: UTF-8
Language: en
Country: US
--></g></svg>