<?xml version="1.0" encoding="UTF-8" standalone="no"?><svg xmlns="http://www.w3.org/2000/svg" xmlns:xlink="http://www.w3.org/1999/xlink" contentScriptType="application/ecmascript" contentStyleType="text/css" height="919.8px" preserveAspectRatio="none" style="width:466px;height:919px;" version="1.1" viewBox="0 0 466 919" width="466.8px" zoomAndPan="magnify"><defs><filter height="300%" id="fn6tenbudzwnh" width="300%" x="-1" y="-1"><feGaussianBlur result="blurOut" stdDeviation="1.2"/><feColorMatrix in="blurOut" result="blurOut2" type="matrix" values="0 0 0 0 0 0 0 0 0 0 0 0 0 0 0 0 0 0 .4 0"/><feOffset dx="2.4" dy="2.4" in="blurOut2" result="blurOut3"/><feBlend in="SourceGraphic" in2="blurOut3" mode="normal"/></filter></defs><g><text fill="#000000" font-family="sans-serif" font-size="10.8" lengthAdjust="spacingAndGlyphs" textLength="93.6" x="176.1" y="11.5451">PS60's model UML</text><!--MD5=[ad11257a85e036b3d6a52d8983a39f6a]
cluster it.polimi.ingsw.ps60.serverSide.model--><polygon fill="#FFFFFF" filter="url(#fn6tenbudzwnh)" points="205.2,110.1095,366.6,110.1095,370.8,125.1503,399.6,125.1503,399.6,912.9095,205.2,912.9095,205.2,110.1095" style="stroke: #000000; stroke-width: 0.8999999999999999;"/><line style="stroke: #000000; stroke-width: 0.8999999999999999;" x1="205.2" x2="370.8" y1="125.1503" y2="125.1503"/><text fill="#000000" font-family="sans-serif" font-size="8.4" font-weight="bold" lengthAdjust="spacingAndGlyphs" textLength="157.8" x="207.6" y="120.2891">it.polimi.ingsw.ps60.serverSide.model</text><!--MD5=[0d852700fdad35b7061d461d6907a324]
cluster java.io--><polygon fill="#FFFFFF" filter="url(#fn6tenbudzwnh)" points="342,29.1095,372.6,29.1095,376.8,44.1503,418.8,44.1503,418.8,90.3095,342,90.3095,342,29.1095" style="stroke: #000000; stroke-width: 0.8999999999999999;"/><line style="stroke: #000000; stroke-width: 0.8999999999999999;" x1="342" x2="376.8" y1="44.1503" y2="44.1503"/><text fill="#000000" font-family="sans-serif" font-size="8.4" font-weight="bold" lengthAdjust="spacingAndGlyphs" textLength="27" x="344.4" y="39.2891">java.io</text><!--MD5=[a39be1bdbca880151af97ff85cdf2859]
cluster it.polimi.ingsw.ps60.serverSide.server--><polygon fill="#FFFFFF" filter="url(#fn6tenbudzwnh)" points="24,627.0095,184.8,627.0095,189,642.0503,190.8,642.0503,190.8,688.2095,24,688.2095,24,627.0095" style="stroke: #000000; stroke-width: 0.8999999999999999;"/><line style="stroke: #000000; stroke-width: 0.8999999999999999;" x1="24" x2="189" y1="642.0503" y2="642.0503"/><text fill="#000000" font-family="sans-serif" font-size="8.4" font-weight="bold" lengthAdjust="spacingAndGlyphs" textLength="157.2" x="26.4" y="637.1891">it.polimi.ingsw.ps60.serverSide.server</text><!--MD5=[9c2f9496c264981aca8953df0d2eb612]
class it.polimi.ingsw.ps60.serverSide.model.Board--><rect fill="#FEFECE" filter="url(#fn6tenbudzwnh)" height="208.5827" id="it.polimi.ingsw.ps60.serverSide.model.Board" style="stroke: #A80036; stroke-width: 0.8999999999999999;" width="152.4" x="214.8" y="132.9095"/><ellipse cx="278.25" cy="142.5095" fill="#ADD1B2" rx="6.6" ry="6.6" style="stroke: #A80036; stroke-width: 0.6;"/><path d="M277.9313,146.4095 Q276.8812,146.4095 276.1969,145.9501 Q275.5219,145.4814 275.1844,144.6376 Q274.8563,143.7845 274.8563,142.6595 Q274.8563,141.3939 275.25,140.4939 Q275.6438,139.5845 276.4125,139.097 Q277.1813,138.6095 278.3063,138.6095 Q278.8406,138.6095 279.2438,138.722 Q279.6469,138.8345 280.0594,139.0501 L279.5719,140.3251 Q279.1969,140.1283 278.8688,140.0533 Q278.55,139.9783 278.2594,139.9783 Q277.5563,139.9783 277.1344,140.3064 Q276.7125,140.6251 276.5344,141.2158 Q276.3563,141.8064 276.3563,142.5939 Q276.3563,143.8408 276.7875,144.4408 Q277.2188,145.0314 278.175,145.0314 Q278.5313,145.0314 278.9063,144.9376 Q279.2813,144.8439 279.7781,144.6095 L279.7781,146.0064 Q279.3375,146.2126 278.8594,146.3158 Q278.3906,146.4095 277.9313,146.4095 Z "/><text fill="#000000" font-family="sans-serif" font-size="7.2" lengthAdjust="spacingAndGlyphs" textLength="20.4" x="290.55" y="145.3031">Board</text><line style="stroke: #A80036; stroke-width: 0.8999999999999999;" x1="215.4" x2="366.6" y1="152.1095" y2="152.1095"/><rect fill="none" height="3.6" style="stroke: #C82930; stroke-width: 0.6;" width="3.6" x="219.6" y="156.9095"/><text fill="#000000" font-family="sans-serif" font-size="6.6" lengthAdjust="spacingAndGlyphs" textLength="57" x="226.8" y="161.5649">cellMatrix : Cell[][]</text><rect fill="none" height="3.6" style="stroke: #C82930; stroke-width: 0.6;" width="3.6" x="219.6" y="165.8986"/><text fill="#000000" font-family="sans-serif" font-size="6.6" lengthAdjust="spacingAndGlyphs" textLength="57.6" x="226.8" y="170.554">cellToSend : char[]</text><rect fill="none" height="3.6" style="stroke: #C82930; stroke-width: 0.6;" width="3.6" x="219.6" y="174.8878"/><text fill="#000000" font-family="sans-serif" font-size="6.6" lengthAdjust="spacingAndGlyphs" textLength="62.4" x="226.8" y="179.5431">completeTower : int</text><rect fill="none" height="3.6" style="stroke: #C82930; stroke-width: 0.6;" width="3.6" x="219.6" y="183.8769"/><text fill="#000000" font-family="sans-serif" font-size="6.6" lengthAdjust="spacingAndGlyphs" textLength="136.8" x="226.8" y="188.5323">playerInGame : CircularListIterator&lt;Player&gt;</text><rect fill="none" height="3.6" style="stroke: #C82930; stroke-width: 0.6;" width="3.6" x="219.6" y="192.866"/><text fill="#000000" font-family="sans-serif" font-size="6.6" lengthAdjust="spacingAndGlyphs" textLength="119.4" x="226.8" y="197.5214">playerList : CircularLinkedList&lt;Player&gt;</text><rect fill="none" height="3.6" style="stroke: #C82930; stroke-width: 0.6;" width="3.6" x="219.6" y="201.8552"/><text fill="#000000" font-family="sans-serif" font-size="6.6" lengthAdjust="spacingAndGlyphs" textLength="70.2" x="226.8" y="206.5105">playerMatrix : Player[]</text><rect fill="none" height="3.6" style="stroke: #C82930; stroke-width: 0.6;" width="3.6" x="219.6" y="210.8443"/><text fill="#000000" font-family="sans-serif" font-size="6.6" lengthAdjust="spacingAndGlyphs" textLength="62.4" x="226.8" y="215.4997">playersNumber : int</text><line style="stroke: #A80036; stroke-width: 0.8999999999999999;" x1="215.4" x2="366.6" y1="219.8334" y2="219.8334"/><ellipse cx="221.4" cy="226.4334" fill="#84BE84" rx="1.8" ry="1.8" style="stroke: #038048; stroke-width: 0.6;"/><text fill="#000000" font-family="sans-serif" font-size="6.6" lengthAdjust="spacingAndGlyphs" textLength="22.8" x="226.8" y="229.2888">Board()</text><ellipse cx="221.4" cy="235.4226" fill="#84BE84" rx="1.8" ry="1.8" style="stroke: #038048; stroke-width: 0.6;"/><text fill="#000000" font-family="sans-serif" font-size="6.6" lengthAdjust="spacingAndGlyphs" textLength="41.4" x="226.8" y="238.2779">changeTurn()</text><ellipse cx="221.4" cy="244.4117" fill="#84BE84" rx="1.8" ry="1.8" style="stroke: #038048; stroke-width: 0.6;"/><text fill="#000000" font-family="sans-serif" font-size="6.6" lengthAdjust="spacingAndGlyphs" textLength="58.8" x="226.8" y="247.267">getCellByPosition()</text><ellipse cx="221.4" cy="253.4008" fill="#84BE84" rx="1.8" ry="1.8" style="stroke: #038048; stroke-width: 0.6;"/><text fill="#000000" font-family="sans-serif" font-size="6.6" lengthAdjust="spacingAndGlyphs" textLength="48.6" x="226.8" y="256.2562">getCellToSend()</text><ellipse cx="221.4" cy="262.39" fill="#84BE84" rx="1.8" ry="1.8" style="stroke: #038048; stroke-width: 0.6;"/><text fill="#000000" font-family="sans-serif" font-size="6.6" lengthAdjust="spacingAndGlyphs" textLength="63.6" x="226.8" y="265.2453">getCompleteTower()</text><ellipse cx="221.4" cy="271.3791" fill="#84BE84" rx="1.8" ry="1.8" style="stroke: #038048; stroke-width: 0.6;"/><text fill="#000000" font-family="sans-serif" font-size="6.6" lengthAdjust="spacingAndGlyphs" textLength="58.2" x="226.8" y="274.2344">getPlayerInGame()</text><ellipse cx="221.4" cy="280.3682" fill="#84BE84" rx="1.8" ry="1.8" style="stroke: #038048; stroke-width: 0.6;"/><text fill="#000000" font-family="sans-serif" font-size="6.6" lengthAdjust="spacingAndGlyphs" textLength="54" x="226.8" y="283.2236">getPlayerMatrix()</text><ellipse cx="221.4" cy="289.3574" fill="#84BE84" rx="1.8" ry="1.8" style="stroke: #038048; stroke-width: 0.6;"/><text fill="#000000" font-family="sans-serif" font-size="6.6" lengthAdjust="spacingAndGlyphs" textLength="56.4" x="226.8" y="292.2127">getPlayerWinner()</text><ellipse cx="221.4" cy="298.3465" fill="#84BE84" rx="1.8" ry="1.8" style="stroke: #038048; stroke-width: 0.6;"/><text fill="#000000" font-family="sans-serif" font-size="6.6" lengthAdjust="spacingAndGlyphs" textLength="62.4" x="226.8" y="301.2018">getPlayersNumber()</text><ellipse cx="221.4" cy="307.3356" fill="#84BE84" rx="1.8" ry="1.8" style="stroke: #038048; stroke-width: 0.6;"/><text fill="#000000" font-family="sans-serif" font-size="6.6" lengthAdjust="spacingAndGlyphs" textLength="79.2" x="226.8" y="310.191">increaseCompleteTower()</text><ellipse cx="221.4" cy="316.3248" fill="#84BE84" rx="1.8" ry="1.8" style="stroke: #038048; stroke-width: 0.6;"/><text fill="#000000" font-family="sans-serif" font-size="6.6" lengthAdjust="spacingAndGlyphs" textLength="34.2" x="226.8" y="319.1801">isNotWon()</text><ellipse cx="221.4" cy="325.3139" fill="#84BE84" rx="1.8" ry="1.8" style="stroke: #038048; stroke-width: 0.6;"/><text fill="#000000" font-family="sans-serif" font-size="6.6" lengthAdjust="spacingAndGlyphs" textLength="16.2" x="226.8" y="328.1692">lose()</text><ellipse cx="221.4" cy="334.303" fill="#84BE84" rx="1.8" ry="1.8" style="stroke: #038048; stroke-width: 0.6;"/><text fill="#000000" font-family="sans-serif" font-size="6.6" lengthAdjust="spacingAndGlyphs" textLength="15" x="226.8" y="337.1584">win()</text><!--MD5=[b3eb984bea951b351caed148fa51dfe9]
class it.polimi.ingsw.ps60.serverSide.model.Cell--><rect fill="#FEFECE" filter="url(#fn6tenbudzwnh)" height="145.6587" id="it.polimi.ingsw.ps60.serverSide.model.Cell" style="stroke: #A80036; stroke-width: 0.8999999999999999;" width="93.6" x="214.8" y="757.5095"/><ellipse cx="252.75" cy="767.1095" fill="#ADD1B2" rx="6.6" ry="6.6" style="stroke: #A80036; stroke-width: 0.6;"/><path d="M252.4312,771.0095 Q251.3813,771.0095 250.6969,770.5501 Q250.0219,770.0814 249.6844,769.2376 Q249.3563,768.3845 249.3563,767.2595 Q249.3563,765.9939 249.75,765.0939 Q250.1437,764.1845 250.9125,763.697 Q251.6812,763.2095 252.8062,763.2095 Q253.3406,763.2095 253.7437,763.322 Q254.1469,763.4345 254.5594,763.6501 L254.0719,764.9251 Q253.6969,764.7283 253.3687,764.6533 Q253.05,764.5783 252.7594,764.5783 Q252.0562,764.5783 251.6344,764.9064 Q251.2125,765.2251 251.0344,765.8158 Q250.8563,766.4064 250.8563,767.1939 Q250.8563,768.4408 251.2875,769.0408 Q251.7188,769.6314 252.675,769.6314 Q253.0313,769.6314 253.4063,769.5376 Q253.7813,769.4439 254.2781,769.2095 L254.2781,770.6064 Q253.8375,770.8126 253.3594,770.9158 Q252.8906,771.0095 252.4312,771.0095 Z "/><text fill="#000000" font-family="sans-serif" font-size="7.2" lengthAdjust="spacingAndGlyphs" textLength="12.6" x="265.05" y="769.9031">Cell</text><line style="stroke: #A80036; stroke-width: 0.8999999999999999;" x1="215.4" x2="307.8" y1="776.7095" y2="776.7095"/><rect fill="none" height="3.6" style="stroke: #C82930; stroke-width: 0.6;" width="3.6" x="219.6" y="781.5095"/><text fill="#000000" font-family="sans-serif" font-size="6.6" lengthAdjust="spacingAndGlyphs" textLength="56.4" x="226.8" y="786.1649">buildingLevel : int</text><rect fill="none" height="3.6" style="stroke: #C82930; stroke-width: 0.6;" width="3.6" x="219.6" y="790.4986"/><text fill="#000000" font-family="sans-serif" font-size="6.6" lengthAdjust="spacingAndGlyphs" textLength="49.2" x="226.8" y="795.154">dome : boolean</text><rect fill="none" height="3.6" style="stroke: #C82930; stroke-width: 0.6;" width="3.6" x="219.6" y="799.4878"/><text fill="#000000" font-family="sans-serif" font-size="6.6" lengthAdjust="spacingAndGlyphs" textLength="44.4" x="226.8" y="804.1431">position : int[]</text><line style="stroke: #A80036; stroke-width: 0.8999999999999999;" x1="215.4" x2="307.8" y1="808.4769" y2="808.4769"/><ellipse cx="221.4" cy="815.0769" fill="#84BE84" rx="1.8" ry="1.8" style="stroke: #038048; stroke-width: 0.6;"/><text fill="#000000" font-family="sans-serif" font-size="6.6" lengthAdjust="spacingAndGlyphs" textLength="15" x="226.8" y="817.9323">Cell()</text><ellipse cx="221.4" cy="824.066" fill="#84BE84" rx="1.8" ry="1.8" style="stroke: #038048; stroke-width: 0.6;"/><text fill="#000000" font-family="sans-serif" font-size="6.6" lengthAdjust="spacingAndGlyphs" textLength="38.4" x="226.8" y="826.9214">buildDome()</text><ellipse cx="221.4" cy="833.0552" fill="#84BE84" rx="1.8" ry="1.8" style="stroke: #038048; stroke-width: 0.6;"/><text fill="#000000" font-family="sans-serif" font-size="6.6" lengthAdjust="spacingAndGlyphs" textLength="56.4" x="226.8" y="835.9105">getBuildingLevel()</text><ellipse cx="221.4" cy="842.0443" fill="#84BE84" rx="1.8" ry="1.8" style="stroke: #038048; stroke-width: 0.6;"/><text fill="#000000" font-family="sans-serif" font-size="6.6" lengthAdjust="spacingAndGlyphs" textLength="39.6" x="226.8" y="844.8997">getPosition()</text><ellipse cx="221.4" cy="851.0334" fill="#84BE84" rx="1.8" ry="1.8" style="stroke: #038048; stroke-width: 0.6;"/><text fill="#000000" font-family="sans-serif" font-size="6.6" lengthAdjust="spacingAndGlyphs" textLength="43.8" x="226.8" y="853.8888">getWorkerIn()</text><ellipse cx="221.4" cy="860.0226" fill="#84BE84" rx="1.8" ry="1.8" style="stroke: #038048; stroke-width: 0.6;"/><text fill="#000000" font-family="sans-serif" font-size="6.6" lengthAdjust="spacingAndGlyphs" textLength="78" x="226.8" y="862.8779">incrementBuildingLevel()</text><ellipse cx="221.4" cy="869.0117" fill="#84BE84" rx="1.8" ry="1.8" style="stroke: #038048; stroke-width: 0.6;"/><text fill="#000000" font-family="sans-serif" font-size="6.6" lengthAdjust="spacingAndGlyphs" textLength="31.2" x="226.8" y="871.867">isDomed()</text><ellipse cx="221.4" cy="878.0008" fill="#84BE84" rx="1.8" ry="1.8" style="stroke: #038048; stroke-width: 0.6;"/><text fill="#000000" font-family="sans-serif" font-size="6.6" lengthAdjust="spacingAndGlyphs" textLength="22.2" x="226.8" y="880.8562">isFree()</text><ellipse cx="221.4" cy="886.99" fill="#84BE84" rx="1.8" ry="1.8" style="stroke: #038048; stroke-width: 0.6;"/><text fill="#000000" font-family="sans-serif" font-size="6.6" lengthAdjust="spacingAndGlyphs" textLength="42.6" x="226.8" y="889.8453">setWorkerIn()</text><rect fill="#F24D5C" height="3.6" style="stroke: #C82930; stroke-width: 0.6;" width="3.6" x="219.6" y="894.1791"/><text fill="#000000" font-family="sans-serif" font-size="6.6" lengthAdjust="spacingAndGlyphs" textLength="60.6" x="226.8" y="898.8344">updateCellToSend()</text><!--MD5=[12d69bee7ce472b37551d23208c0fc85]
class it.polimi.ingsw.ps60.serverSide.model.Player--><rect fill="#FEFECE" filter="url(#fn6tenbudzwnh)" height="181.6153" id="it.polimi.ingsw.ps60.serverSide.model.Player" style="stroke: #A80036; stroke-width: 0.8999999999999999;" width="94.2" x="257.7" y="389.1095"/><ellipse cx="291.75" cy="398.7095" fill="#ADD1B2" rx="6.6" ry="6.6" style="stroke: #A80036; stroke-width: 0.6;"/><path d="M291.4313,402.6095 Q290.3812,402.6095 289.6969,402.1501 Q289.0219,401.6814 288.6844,400.8376 Q288.3563,399.9845 288.3563,398.8595 Q288.3563,397.5939 288.75,396.6939 Q289.1438,395.7845 289.9125,395.297 Q290.6813,394.8095 291.8063,394.8095 Q292.3406,394.8095 292.7438,394.922 Q293.1469,395.0345 293.5594,395.2501 L293.0719,396.5251 Q292.6969,396.3283 292.3688,396.2533 Q292.05,396.1783 291.7594,396.1783 Q291.0563,396.1783 290.6344,396.5064 Q290.2125,396.8251 290.0344,397.4158 Q289.8563,398.0064 289.8563,398.7939 Q289.8563,400.0408 290.2875,400.6408 Q290.7188,401.2314 291.675,401.2314 Q292.0313,401.2314 292.4063,401.1376 Q292.7813,401.0439 293.2781,400.8095 L293.2781,402.2064 Q292.8375,402.4126 292.3594,402.5158 Q291.8906,402.6095 291.4313,402.6095 Z "/><text fill="#000000" font-family="sans-serif" font-size="7.2" lengthAdjust="spacingAndGlyphs" textLength="21" x="304.05" y="401.5031">Player</text><line style="stroke: #A80036; stroke-width: 0.8999999999999999;" x1="258.3" x2="351.3" y1="408.3095" y2="408.3095"/><rect fill="none" height="3.6" style="stroke: #C82930; stroke-width: 0.6;" width="3.6" x="262.5" y="413.1095"/><text fill="#000000" font-family="sans-serif" font-size="6.6" lengthAdjust="spacingAndGlyphs" textLength="78.6" x="269.7" y="417.7649">buildByWorker : boolean</text><rect fill="none" height="3.6" style="stroke: #C82930; stroke-width: 0.6;" width="3.6" x="262.5" y="422.0986"/><text fill="#000000" font-family="sans-serif" font-size="6.6" lengthAdjust="spacingAndGlyphs" textLength="52.2" x="269.7" y="426.754">divinityCard : int</text><rect fill="none" height="3.6" style="stroke: #C82930; stroke-width: 0.6;" width="3.6" x="262.5" y="431.0878"/><text fill="#000000" font-family="sans-serif" font-size="6.6" lengthAdjust="spacingAndGlyphs" textLength="54.6" x="269.7" y="435.7431">nickname : String</text><rect fill="none" height="3.6" style="stroke: #C82930; stroke-width: 0.6;" width="3.6" x="262.5" y="440.0769"/><text fill="#000000" font-family="sans-serif" font-size="6.6" lengthAdjust="spacingAndGlyphs" textLength="59.4" x="269.7" y="444.7323">workers : Worker[]</text><line style="stroke: #A80036; stroke-width: 0.8999999999999999;" x1="258.3" x2="351.3" y1="449.066" y2="449.066"/><ellipse cx="264.3" cy="455.666" fill="#84BE84" rx="1.8" ry="1.8" style="stroke: #038048; stroke-width: 0.6;"/><text fill="#000000" font-family="sans-serif" font-size="6.6" lengthAdjust="spacingAndGlyphs" textLength="23.4" x="269.7" y="458.5214">Player()</text><ellipse cx="264.3" cy="464.6552" fill="#84BE84" rx="1.8" ry="1.8" style="stroke: #038048; stroke-width: 0.6;"/><text fill="#000000" font-family="sans-serif" font-size="6.6" lengthAdjust="spacingAndGlyphs" textLength="52.8" x="269.7" y="467.5105">getDivinityCard()</text><ellipse cx="264.3" cy="473.6443" fill="#84BE84" rx="1.8" ry="1.8" style="stroke: #038048; stroke-width: 0.6;"/><text fill="#000000" font-family="sans-serif" font-size="6.6" lengthAdjust="spacingAndGlyphs" textLength="64.2" x="269.7" y="476.4997">getDivinityStrategy()</text><ellipse cx="264.3" cy="482.6334" fill="#84BE84" rx="1.8" ry="1.8" style="stroke: #038048; stroke-width: 0.6;"/><text fill="#000000" font-family="sans-serif" font-size="6.6" lengthAdjust="spacingAndGlyphs" textLength="44.4" x="269.7" y="485.4888">getNickname()</text><ellipse cx="264.3" cy="491.6226" fill="#84BE84" rx="1.8" ry="1.8" style="stroke: #038048; stroke-width: 0.6;"/><text fill="#000000" font-family="sans-serif" font-size="6.6" lengthAdjust="spacingAndGlyphs" textLength="56.4" x="269.7" y="494.4779">getServerThread()</text><ellipse cx="264.3" cy="500.6117" fill="#84BE84" rx="1.8" ry="1.8" style="stroke: #038048; stroke-width: 0.6;"/><text fill="#000000" font-family="sans-serif" font-size="6.6" lengthAdjust="spacingAndGlyphs" textLength="37.2" x="269.7" y="503.467">getWorker()</text><ellipse cx="264.3" cy="509.6008" fill="#84BE84" rx="1.8" ry="1.8" style="stroke: #038048; stroke-width: 0.6;"/><text fill="#000000" font-family="sans-serif" font-size="6.6" lengthAdjust="spacingAndGlyphs" textLength="58.8" x="269.7" y="512.4562">getWorkerMoved()</text><ellipse cx="264.3" cy="518.59" fill="#84BE84" rx="1.8" ry="1.8" style="stroke: #038048; stroke-width: 0.6;"/><text fill="#000000" font-family="sans-serif" font-size="6.6" lengthAdjust="spacingAndGlyphs" textLength="40.2" x="269.7" y="521.4453">getWorkers()</text><ellipse cx="264.3" cy="527.5791" fill="#84BE84" rx="1.8" ry="1.8" style="stroke: #038048; stroke-width: 0.6;"/><text fill="#000000" font-family="sans-serif" font-size="6.6" lengthAdjust="spacingAndGlyphs" textLength="55.8" x="269.7" y="530.4344">isBuildByWorker()</text><ellipse cx="264.3" cy="536.5682" fill="#84BE84" rx="1.8" ry="1.8" style="stroke: #038048; stroke-width: 0.6;"/><text fill="#000000" font-family="sans-serif" font-size="6.6" lengthAdjust="spacingAndGlyphs" textLength="60" x="269.7" y="539.4236">setBuildByWorker()</text><ellipse cx="264.3" cy="545.5574" fill="#84BE84" rx="1.8" ry="1.8" style="stroke: #038048; stroke-width: 0.6;"/><text fill="#000000" font-family="sans-serif" font-size="6.6" lengthAdjust="spacingAndGlyphs" textLength="51.6" x="269.7" y="548.4127">setDivinityCard()</text><ellipse cx="264.3" cy="554.5465" fill="#84BE84" rx="1.8" ry="1.8" style="stroke: #038048; stroke-width: 0.6;"/><text fill="#000000" font-family="sans-serif" font-size="6.6" lengthAdjust="spacingAndGlyphs" textLength="55.2" x="269.7" y="557.4018">setServerThread()</text><ellipse cx="264.3" cy="563.5356" fill="#84BE84" rx="1.8" ry="1.8" style="stroke: #038048; stroke-width: 0.6;"/><text fill="#000000" font-family="sans-serif" font-size="6.6" lengthAdjust="spacingAndGlyphs" textLength="57.6" x="269.7" y="566.391">setWorkerMoved()</text><!--MD5=[6f4fe5574216ddb0115856f06c715a82]
class it.polimi.ingsw.ps60.serverSide.model.Worker--><rect fill="#FEFECE" filter="url(#fn6tenbudzwnh)" height="91.7239" id="it.polimi.ingsw.ps60.serverSide.model.Worker" style="stroke: #A80036; stroke-width: 0.8999999999999999;" width="66.6" x="297.9" y="618.3095"/><ellipse cx="317.16" cy="627.9095" fill="#ADD1B2" rx="6.6" ry="6.6" style="stroke: #A80036; stroke-width: 0.6;"/><path d="M316.8413,631.8095 Q315.7913,631.8095 315.1069,631.3501 Q314.4319,630.8814 314.0944,630.0376 Q313.7663,629.1845 313.7663,628.0595 Q313.7663,626.7939 314.16,625.8939 Q314.5538,624.9845 315.3225,624.497 Q316.0913,624.0095 317.2163,624.0095 Q317.7506,624.0095 318.1538,624.122 Q318.5569,624.2345 318.9694,624.4501 L318.4819,625.7251 Q318.1069,625.5283 317.7788,625.4533 Q317.46,625.3783 317.1694,625.3783 Q316.4663,625.3783 316.0444,625.7064 Q315.6225,626.0251 315.4444,626.6158 Q315.2663,627.2064 315.2663,627.9939 Q315.2663,629.2408 315.6975,629.8408 Q316.1288,630.4314 317.085,630.4314 Q317.4413,630.4314 317.8163,630.3376 Q318.1913,630.2439 318.6881,630.0095 L318.6881,631.4064 Q318.2475,631.6126 317.7694,631.7158 Q317.3006,631.8095 316.8413,631.8095 Z "/><text fill="#000000" font-family="sans-serif" font-size="7.2" lengthAdjust="spacingAndGlyphs" textLength="24.6" x="327.84" y="630.7031">Worker</text><line style="stroke: #A80036; stroke-width: 0.8999999999999999;" x1="298.5" x2="363.9" y1="637.5095" y2="637.5095"/><line style="stroke: #A80036; stroke-width: 0.8999999999999999;" x1="298.5" x2="363.9" y1="642.3095" y2="642.3095"/><ellipse cx="304.5" cy="648.9095" fill="#84BE84" rx="1.8" ry="1.8" style="stroke: #038048; stroke-width: 0.6;"/><text fill="#000000" font-family="sans-serif" font-size="6.6" lengthAdjust="spacingAndGlyphs" textLength="27" x="309.9" y="651.7649">Worker()</text><ellipse cx="304.5" cy="657.8986" fill="#84BE84" rx="1.8" ry="1.8" style="stroke: #038048; stroke-width: 0.6;"/><text fill="#000000" font-family="sans-serif" font-size="6.6" lengthAdjust="spacingAndGlyphs" textLength="51" x="309.9" y="660.754">getCellPosition()</text><ellipse cx="304.5" cy="666.8878" fill="#84BE84" rx="1.8" ry="1.8" style="stroke: #038048; stroke-width: 0.6;"/><text fill="#000000" font-family="sans-serif" font-size="6.6" lengthAdjust="spacingAndGlyphs" textLength="36.6" x="309.9" y="669.7431">getOldCell()</text><ellipse cx="304.5" cy="675.8769" fill="#84BE84" rx="1.8" ry="1.8" style="stroke: #038048; stroke-width: 0.6;"/><text fill="#000000" font-family="sans-serif" font-size="6.6" lengthAdjust="spacingAndGlyphs" textLength="35.4" x="309.9" y="678.7323">getOwner()</text><ellipse cx="304.5" cy="684.866" fill="#84BE84" rx="1.8" ry="1.8" style="stroke: #038048; stroke-width: 0.6;"/><text fill="#000000" font-family="sans-serif" font-size="6.6" lengthAdjust="spacingAndGlyphs" textLength="41.4" x="309.9" y="687.7214">isLeveledUp()</text><ellipse cx="304.5" cy="693.8552" fill="#84BE84" rx="1.8" ry="1.8" style="stroke: #038048; stroke-width: 0.6;"/><text fill="#000000" font-family="sans-serif" font-size="6.6" lengthAdjust="spacingAndGlyphs" textLength="44.4" x="309.9" y="696.7105">moveWorker()</text><ellipse cx="304.5" cy="702.8443" fill="#84BE84" rx="1.8" ry="1.8" style="stroke: #038048; stroke-width: 0.6;"/><text fill="#000000" font-family="sans-serif" font-size="6.6" lengthAdjust="spacingAndGlyphs" textLength="35.4" x="309.9" y="705.6997">setOldCell()</text><!--MD5=[5a5af9b0547913863cbe0ddf55a9ab5e]
class java.io.Serializable--><rect fill="#FEFECE" filter="url(#fn6tenbudzwnh)" height="28.8" id="java.io.Serializable" style="stroke: #A80036; stroke-width: 0.8999999999999999;" width="58.2" x="351.3" y="51.9095"/><ellipse cx="360.3" cy="61.5095" fill="#ADD1B2" rx="6.6" ry="6.6" style="stroke: #A80036; stroke-width: 0.6;"/><path d="M359.9813,65.4095 Q358.9313,65.4095 358.2469,64.9501 Q357.5719,64.4814 357.2344,63.6376 Q356.9063,62.7845 356.9063,61.6595 Q356.9063,60.3939 357.3,59.4939 Q357.6937,58.5845 358.4625,58.097 Q359.2313,57.6095 360.3563,57.6095 Q360.8906,57.6095 361.2938,57.722 Q361.6969,57.8345 362.1094,58.0501 L361.6219,59.3251 Q361.2469,59.1283 360.9188,59.0533 Q360.6,58.9783 360.3094,58.9783 Q359.6063,58.9783 359.1844,59.3064 Q358.7625,59.6251 358.5844,60.2158 Q358.4063,60.8064 358.4063,61.5939 Q358.4063,62.8408 358.8375,63.4408 Q359.2688,64.0314 360.225,64.0314 Q360.5813,64.0314 360.9563,63.9376 Q361.3313,63.8439 361.8281,63.6095 L361.8281,65.0064 Q361.3875,65.2126 360.9094,65.3158 Q360.4406,65.4095 359.9813,65.4095 Z "/><text fill="#000000" font-family="sans-serif" font-size="7.2" lengthAdjust="spacingAndGlyphs" textLength="39" x="368.7" y="64.3031">Serializable</text><line style="stroke: #A80036; stroke-width: 0.8999999999999999;" x1="351.9" x2="408.9" y1="71.1095" y2="71.1095"/><line style="stroke: #A80036; stroke-width: 0.8999999999999999;" x1="351.9" x2="408.9" y1="75.9095" y2="75.9095"/><!--MD5=[355630cba91219728d50195504d4875f]
class it.polimi.ingsw.ps60.serverSide.server.ServerThread--><rect fill="#FEFECE" filter="url(#fn6tenbudzwnh)" height="28.8" id="it.polimi.ingsw.ps60.serverSide.server.ServerThread" style="stroke: #A80036; stroke-width: 0.8999999999999999;" width="65.4" x="115.5" y="649.8095"/><ellipse cx="124.5" cy="659.4095" fill="#ADD1B2" rx="6.6" ry="6.6" style="stroke: #A80036; stroke-width: 0.6;"/><path d="M124.1812,663.3095 Q123.1313,663.3095 122.4469,662.8501 Q121.7719,662.3814 121.4344,661.5376 Q121.1062,660.6845 121.1062,659.5595 Q121.1062,658.2939 121.5,657.3939 Q121.8938,656.4845 122.6625,655.997 Q123.4312,655.5095 124.5562,655.5095 Q125.0906,655.5095 125.4937,655.622 Q125.8969,655.7345 126.3094,655.9501 L125.8219,657.2251 Q125.4469,657.0283 125.1187,656.9533 Q124.8,656.8783 124.5094,656.8783 Q123.8062,656.8783 123.3844,657.2064 Q122.9625,657.5251 122.7844,658.1158 Q122.6062,658.7064 122.6062,659.4939 Q122.6062,660.7408 123.0375,661.3408 Q123.4688,661.9314 124.425,661.9314 Q124.7813,661.9314 125.1563,661.8376 Q125.5313,661.7439 126.0281,661.5095 L126.0281,662.9064 Q125.5875,663.1126 125.1094,663.2158 Q124.6406,663.3095 124.1812,663.3095 Z "/><text fill="#000000" font-family="sans-serif" font-size="7.2" lengthAdjust="spacingAndGlyphs" textLength="46.2" x="132.9" y="662.2031">ServerThread</text><line style="stroke: #A80036; stroke-width: 0.8999999999999999;" x1="116.1" x2="180.3" y1="669.0095" y2="669.0095"/><line style="stroke: #A80036; stroke-width: 0.8999999999999999;" x1="116.1" x2="180.3" y1="673.8095" y2="673.8095"/><!--MD5=[1ecd602f4b5f8e3c7e2e76c14009e2de]
reverse link java.io.Serializable to it.polimi.ingsw.ps60.serverSide.model.Board--><path d="M367.434,91.5395 C361.416,102.9695 353.814,117.4115 345.75,132.7235 " fill="none" id="java.io.Serializable&lt;-it.polimi.ingsw.ps60.serverSide.model.Board" style="stroke: #A80036; stroke-width: 0.6; stroke-dasharray: 7.0,7.0;"/><polygon fill="none" points="363.78,89.4635,373.086,80.8055,371.208,93.3815,363.78,89.4635" style="stroke: #A80036; stroke-width: 0.6;"/><!--MD5=[dd6bde4bde2bf26a88bce60870d16969]
reverse link it.polimi.ingsw.ps60.serverSide.model.Board to it.polimi.ingsw.ps60.serverSide.model.Player--><path d="M297.384,349.6775 C298.14,362.8475 298.902,376.1555 299.634,388.9775 " fill="none" id="it.polimi.ingsw.ps60.serverSide.model.Board&lt;-it.polimi.ingsw.ps60.serverSide.model.Player" style="stroke: #A80036; stroke-width: 0.6;"/><polygon fill="#FFFFFF" points="296.934,341.7275,294.7438,345.4588,297.3457,348.9157,299.5359,345.1844,296.934,341.7275" style="stroke: #A80036; stroke-width: 0.6;"/><text fill="#000000" font-family="sans-serif" font-size="7.8" lengthAdjust="spacingAndGlyphs" textLength="48" x="298.8" y="368.6477">playerWinner</text><!--MD5=[157249acc3d3769de8641534c1137897]
reverse link java.io.Serializable to it.polimi.ingsw.ps60.serverSide.model.Cell--><path d="M339.126,66.9875 C241.32,69.5555 3.6,90.8135 3.6,236.7095 C3.6,236.7095 3.6,236.7095 3.6,664.8095 C3.6,763.8335 140.16,806.1095 214.578,821.7935 " fill="none" id="java.io.Serializable&lt;-it.polimi.ingsw.ps60.serverSide.model.Cell" style="stroke: #A80036; stroke-width: 0.6; stroke-dasharray: 7.0,7.0;"/><polygon fill="none" points="339.066,62.7875,351.144,66.7475,339.234,71.1875,339.066,62.7875" style="stroke: #A80036; stroke-width: 0.6;"/><!--MD5=[32c7f5ba7aaae7b55f2646aad01d3490]
reverse link it.polimi.ingsw.ps60.serverSide.model.Cell to it.polimi.ingsw.ps60.serverSide.model.Board--><path d="M242.502,749.4815 C242.004,746.1215 241.566,742.7915 241.2,739.5095 C240.636,734.4755 241.158,733.1735 241.2,728.1095 C242.532,577.4255 224.706,538.1135 247.2,389.1095 C249.534,373.6415 253.014,357.5255 257.016,341.8295 " fill="none" id="it.polimi.ingsw.ps60.serverSide.model.Cell&lt;-it.polimi.ingsw.ps60.serverSide.model.Board" style="stroke: #A80036; stroke-width: 0.6;"/><polygon fill="#FFFFFF" points="243.762,757.3535,245.5624,753.4192,242.6232,750.2441,240.8228,754.1784,243.762,757.3535" style="stroke: #A80036; stroke-width: 0.6;"/><text fill="#000000" font-family="sans-serif" font-size="7.8" lengthAdjust="spacingAndGlyphs" textLength="21.6" x="238.2" y="597.8477">board</text><!--MD5=[210881a6d48a02b1ce3eaeba1648a5d4]
reverse link it.polimi.ingsw.ps60.serverSide.model.Cell to it.polimi.ingsw.ps60.serverSide.model.Worker--><path d="M313.182,776.2295 C321.312,764.8955 328.506,752.4335 333,739.5095 C336.192,730.3175 337.362,720.1055 337.416,710.2475 " fill="none" id="it.polimi.ingsw.ps60.serverSide.model.Cell&lt;-it.polimi.ingsw.ps60.serverSide.model.Worker" style="stroke: #A80036; stroke-width: 0.6;"/><polygon fill="#FFFFFF" points="308.442,782.5835,312.5185,781.1336,312.7481,776.8131,308.6716,778.2629,308.442,782.5835" style="stroke: #A80036; stroke-width: 0.6;"/><text fill="#000000" font-family="sans-serif" font-size="7.8" lengthAdjust="spacingAndGlyphs" textLength="32.4" x="336" y="737.0477">workerIn</text><!--MD5=[23c5a031bb6c3ceb9a87ae4cdc0276cb]
reverse link it.polimi.ingsw.ps60.serverSide.model.Worker to it.polimi.ingsw.ps60.serverSide.model.Cell--><path d="M306.45,717.4895 C304.854,721.0775 303.288,724.6415 301.8,728.1095 C297.756,737.5295 293.628,747.5015 289.632,757.3715 " fill="none" id="it.polimi.ingsw.ps60.serverSide.model.Worker&lt;-it.polimi.ingsw.ps60.serverSide.model.Cell" style="stroke: #A80036; stroke-width: 0.6;"/><polygon fill="#FFFFFF" points="309.762,710.1335,306.0972,712.4334,306.8107,716.7008,310.4754,714.4009,309.762,710.1335" style="stroke: #A80036; stroke-width: 0.6;"/><text fill="#000000" font-family="sans-serif" font-size="7.8" lengthAdjust="spacingAndGlyphs" textLength="25.2" x="302.4" y="737.0477">OldCell</text><!--MD5=[23c5a031bb6c3ceb9a87ae4cdc0276cb]
reverse link it.polimi.ingsw.ps60.serverSide.model.Worker to it.polimi.ingsw.ps60.serverSide.model.Cell--><path d="M291.09,685.5575 C275.304,696.0035 258.894,710.2835 250.2,728.1095 C245.76,737.2115 243.864,747.3035 243.6,757.4915 " fill="none" id="it.polimi.ingsw.ps60.serverSide.model.Worker&lt;-it.polimi.ingsw.ps60.serverSide.model.Cell-1" style="stroke: #A80036; stroke-width: 0.6;"/><polygon fill="#FFFFFF" points="297.792,681.3095,293.4665,681.208,291.7092,685.1617,296.0347,685.2632,297.792,681.3095" style="stroke: #A80036; stroke-width: 0.6;"/><text fill="#000000" font-family="sans-serif" font-size="7.8" lengthAdjust="spacingAndGlyphs" textLength="40.8" x="250.8" y="737.0477">cellPosition</text><!--MD5=[dc253888d36f76ac4087f2d98f6b65b9]
reverse link java.io.Serializable to it.polimi.ingsw.ps60.serverSide.model.Player--><path d="M384.216,92.9195 C390.582,142.3235 400.59,252.7535 378,341.7095 C372.402,363.7535 362.598,386.1575 351.948,406.3055 " fill="none" id="java.io.Serializable&lt;-it.polimi.ingsw.ps60.serverSide.model.Player" style="stroke: #A80036; stroke-width: 0.6; stroke-dasharray: 7.0,7.0;"/><polygon fill="none" points="380.04,93.3875,382.584,80.9315,388.362,92.2535,380.04,93.3875" style="stroke: #A80036; stroke-width: 0.6;"/><!--MD5=[7b9c8050e81ddac43de2c39ca9a85594]
reverse link it.polimi.ingsw.ps60.serverSide.model.Player to it.polimi.ingsw.ps60.serverSide.server.ServerThread--><path d="M250.812,507.9695 C219.732,526.5575 182.724,554.0855 161.4,588.9095 C149.916,607.6655 147.798,633.7415 147.714,649.5995 " fill="none" id="it.polimi.ingsw.ps60.serverSide.model.Player&lt;-it.polimi.ingsw.ps60.serverSide.server.ServerThread" style="stroke: #A80036; stroke-width: 0.6;"/><polygon fill="#FFFFFF" points="257.55,504.0275,253.2306,503.7769,251.338,507.6677,255.6574,507.9183,257.55,504.0275" style="stroke: #A80036; stroke-width: 0.6;"/><text fill="#000000" font-family="sans-serif" font-size="7.8" lengthAdjust="spacingAndGlyphs" textLength="47.4" x="162" y="597.8477">serverThread</text><!--MD5=[d75352defa96bd1648e475761b683df0]
reverse link it.polimi.ingsw.ps60.serverSide.model.Player to it.polimi.ingsw.ps60.serverSide.model.Worker--><path d="M280.932,578.9615 C281.472,586.2515 282.756,593.4335 285,600.3095 C287.892,609.1715 292.542,617.8235 297.804,625.7375 " fill="none" id="it.polimi.ingsw.ps60.serverSide.model.Player&lt;-it.polimi.ingsw.ps60.serverSide.model.Worker" style="stroke: #A80036; stroke-width: 0.6;"/><polygon fill="#FFFFFF" points="280.62,571.0295,278.3603,574.7192,280.897,578.2242,283.1567,574.5345,280.62,571.0295" style="stroke: #A80036; stroke-width: 0.6;"/><text fill="#000000" font-family="sans-serif" font-size="7.8" lengthAdjust="spacingAndGlyphs" textLength="50.4" x="285.6" y="597.8477">workerMoved</text><!--MD5=[b44da9c172d00c4a00652af3a7247e02]
reverse link it.polimi.ingsw.ps60.serverSide.model.Worker to it.polimi.ingsw.ps60.serverSide.model.Player--><path d="M338.244,610.3055 C338.544,606.9275 338.802,603.5735 339,600.3095 C339.588,590.7095 338.94,580.8335 337.464,571.0595 " fill="none" id="it.polimi.ingsw.ps60.serverSide.model.Worker&lt;-it.polimi.ingsw.ps60.serverSide.model.Player" style="stroke: #A80036; stroke-width: 0.6;"/><polygon fill="#FFFFFF" points="337.476,618.2015,340.2131,614.8507,338.1728,611.0353,335.4357,614.3861,337.476,618.2015" style="stroke: #A80036; stroke-width: 0.6;"/><text fill="#000000" font-family="sans-serif" font-size="7.8" lengthAdjust="spacingAndGlyphs" textLength="22.8" x="339.6" y="597.8477">owner</text><!--MD5=[95ee5787f73552af2453eb87cf4ee947]
reverse link java.io.Serializable to it.polimi.ingsw.ps60.serverSide.model.Worker--><path d="M396.936,91.2815 C398.262,94.0955 399.396,97.0055 400.2,99.9095 C459.69,314.6915 438.846,389.0735 367.8,600.3095 C365.778,606.3275 363.15,612.4055 360.228,618.2975 " fill="none" id="java.io.Serializable&lt;-it.polimi.ingsw.ps60.serverSide.model.Worker" style="stroke: #A80036; stroke-width: 0.6; stroke-dasharray: 7.0,7.0;"/><polygon fill="none" points="393.228,93.2675,390.984,80.7515,400.542,89.1335,393.228,93.2675" style="stroke: #A80036; stroke-width: 0.6;"/><!--MD5=[b4e40ceed57a27690a2e9ebb8d9e9d7b]
@startuml
title PS60's model UML

namespace it.polimi.ingsw.ps60.serverSide.model{
            class it.polimi.ingsw.ps60.serverSide.model.Board {
                - cellMatrix : Cell[][]
                - cellToSend : char[]
                - completeTower : int
                - playerInGame : CircularListIterator<Player>
                - playerList : CircularLinkedList<Player>
                - playerMatrix : Player[]
                - playersNumber : int
                + Board()
                + changeTurn()
                + getCellByPosition()
                + getCellToSend()
                + getCompleteTower()
                + getPlayerInGame()
                + getPlayerMatrix()
                + getPlayerWinner()
                + getPlayersNumber()
                + increaseCompleteTower()
                + isNotWon()
                + lose()
                + win()
            }

            class it.polimi.ingsw.ps60.serverSide.model.Cell {
                - buildingLevel : int
                - dome : boolean
                - position : int[]
                + Cell()
                + buildDome()
                + getBuildingLevel()
                + getPosition()
                + getWorkerIn()
                + incrementBuildingLevel()
                + isDomed()
                + isFree()
                + setWorkerIn()
                - updateCellToSend()
            }

            class it.polimi.ingsw.ps60.serverSide.model.Player {
                - buildByWorker : boolean
                - divinityCard : int
                - nickname : String
                - workers : Worker[]
                + Player()
                + getDivinityCard()
                + getDivinityStrategy()
                + getNickname()
                + getServerThread()
                + getWorker()
                + getWorkerMoved()
                + getWorkers()
                + isBuildByWorker()
                + setBuildByWorker()
                + setDivinityCard()
                + setServerThread()
                + setWorkerMoved()
            }

            class it.polimi.ingsw.ps60.serverSide.model.Worker {
                + Worker()
                + getCellPosition()
                + getOldCell()
                + getOwner()
                + isLeveledUp()
                + moveWorker()
                + setOldCell()
            }
}

    it.polimi.ingsw.ps60.serverSide.model.Board .up.|> java.io.Serializable
    it.polimi.ingsw.ps60.serverSide.model.Board o- - it.polimi.ingsw.ps60.serverSide.model.Player : playerWinner
    it.polimi.ingsw.ps60.serverSide.model.Cell .up.|> java.io.Serializable
    it.polimi.ingsw.ps60.serverSide.model.Cell o- - it.polimi.ingsw.ps60.serverSide.model.Board : board
    it.polimi.ingsw.ps60.serverSide.model.Cell o- - it.polimi.ingsw.ps60.serverSide.model.Worker : workerIn
    it.polimi.ingsw.ps60.serverSide.model.Player .up.|> java.io.Serializable
    it.polimi.ingsw.ps60.serverSide.model.Player o- - it.polimi.ingsw.ps60.serverSide.server.ServerThread : serverThread
    it.polimi.ingsw.ps60.serverSide.model.Player o- - it.polimi.ingsw.ps60.serverSide.model.Worker : workerMoved
    it.polimi.ingsw.ps60.serverSide.model.Worker .up.|> java.io.Serializable
    it.polimi.ingsw.ps60.serverSide.model.Worker o- - it.polimi.ingsw.ps60.serverSide.model.Cell : OldCell
    it.polimi.ingsw.ps60.serverSide.model.Worker o- - it.polimi.ingsw.ps60.serverSide.model.Cell : cellPosition
    it.polimi.ingsw.ps60.serverSide.model.Worker o- - it.polimi.ingsw.ps60.serverSide.model.Player : owner
@enduml

PlantUML version 1.2020.09(Sun May 10 12:51:06 CEST 2020)
(GPL source distribution)
Java Runtime: OpenJDK Runtime Environment
JVM: OpenJDK 64-Bit Server VM
Java Version: 11.0.7+10-b765.53
Operating System: Linux
Default Encoding: UTF-8
Language: en
Country: US
--></g></svg>